<?xml version="1.0" encoding="utf-8"?>
<svg viewBox="0 0 40 40" xmlns="http://www.w3.org/2000/svg">
    <g transform="matrix(0.7129809260368347, 0, 0, 0.9167569875717163, -71.9044418334961, 2)" style="">
        <g id="surface1" transform="translate(0, 0)">
            <path style="stroke:none;fill-rule:nonzero;fill:rgb(100%,0.784314%,53.333333%);fill-opacity:1;" d="M 108.230469 7.214844 L 141.707031 7.214844 C 141.710938 3.277344 141.707031 0.0273438 141.699219 0 L 152.890625 10.492188 L 141.699219 20.984375 C 141.699219 20.984375 141.703125 17.960938 141.707031 14.207031 L 108.230469 14.207031 Z M 141.699219 0 Z M 141.699219 0 "/>
            <path style="stroke:none;fill-rule:nonzero;fill:rgb(100%,0.784314%,53.333333%);fill-opacity:1;" d="M 151.042969 25.136719 L 117.566406 25.136719 C 117.5625 21.199219 117.566406 17.949219 117.574219 17.921875 L 106.382812 28.414062 L 117.574219 38.90625 C 117.574219 38.90625 117.570312 35.882812 117.570312 32.132812 L 151.042969 32.132812 Z M 117.574219 17.921875 Z M 117.574219 17.921875 "/>
        </g>
    </g>
</svg>